<?xml version="1.0" encoding="UTF-8" standalone="no"?>
<svg
  width="179.11133"
  height="48.495121"
  viewBox="0 0 47.389871 12.831"
  version="1.1"
  xmlns="http://www.w3.org/2000/svg">

  <g transform="matrix(0.26458333,0,0,0.26458333,2162.4421,-1932.705)">
    <g>
      <path
        d="M 0,0 C -0.231,1.021 -0.356,2.083 -0.446,3.099 -0.533,4.107 -0.562,5.111 -0.383,6.11 -0.211,7.078 1.464,8.551 1.857,6.936 2.294,5.156 1.132,2.706 0.523,1.085 0.416,0.797 0.213,0.415 0,0 M -14.388,3.344 C -10.873,3.762 -8.469,2.577 -5.647,1.035 -6.084,1.157 -6.546,1.213 -6.99,1.287 -7.736,1.416 -8.479,1.542 -9.219,1.684 -9.694,1.775 -9.795,1.037 -9.326,0.944 -8.583,0.797 -7.842,0.667 -7.099,0.536 -6.43,0.42 -5.754,0.242 -5.072,0.31 c 0.176,0.018 0.232,0.17 0.197,0.304 0.291,-0.16 0.578,-0.318 0.882,-0.48 -3.608,-0.795 -8.709,0.172 -10.395,3.21 m 5.657,11.727 c -0.049,1.667 0.04,3.441 0.977,4.873 0.523,0.802 2.333,2.014 2.924,0.675 0.862,-1.956 -0.346,-5.117 -0.967,-6.959 -0.517,-1.53 -1.134,-3.168 -1.892,-4.638 -0.841,1.852 -0.987,4.104 -1.042,6.049 m -10.354,-3.512 c -1.599,-0.06 -3.223,0.094 -4.737,0.618 -1.195,0.415 -3.424,3.424 -1.175,3.891 2.471,0.517 5.467,-0.976 7.641,-1.973 0.191,-0.088 0.411,-0.207 0.631,-0.33 -0.958,0.155 -1.906,0.354 -2.821,0.726 -0.476,0.193 -0.787,-0.545 -0.309,-0.735 1.179,-0.47 2.394,-0.695 3.648,-0.871 0.526,-0.075 1.073,-0.182 1.62,-0.284 0.254,-0.121 0.507,-0.242 0.755,-0.328 -1.713,-0.436 -3.498,-0.647 -5.253,-0.714 M -29.98,26.23 c -1.899,0.353 -3.791,0.978 -5.323,2.182 -1.73,1.36 -1.695,3.637 0.738,3.334 2.892,-0.358 5.921,-1.937 8.47,-3.272 0.293,-0.155 0.613,-0.352 0.941,-0.56 -1.903,0.398 -3.862,0.64 -5.559,1.026 -0.477,0.108 -0.578,-0.644 -0.106,-0.751 1.736,-0.4 3.489,-0.737 5.231,-1.12 1.654,-0.366 3.236,-0.957 4.863,-1.392 0.031,-0.049 0.058,-0.099 0.085,-0.151 -3.076,-0.296 -6.369,0.153 -9.34,0.704 m 0.019,14.058 c -1.013,0.494 -2.07,0.919 -3.058,1.417 -1.891,0.952 -3.671,2.036 -5.363,3.309 -0.403,0.306 -0.887,-0.316 -0.479,-0.621 1.565,-1.174 3.25,-2.131 4.956,-3.085 0.348,-0.195 0.714,-0.398 1.08,-0.597 -1.358,0.293 -2.676,0.671 -3.865,1.044 -1.766,0.555 -3.414,1.358 -4.938,2.402 -1.488,1.02 -3.018,4.895 0.064,4.57 3.341,-0.353 6.575,-3.393 9.072,-5.401 0.993,-0.799 2.099,-2.106 3.28,-3.106 -0.248,0.009 -0.501,0.05 -0.749,0.068 m -4.766,17.445 c -0.844,0.783 -1.93,1.409 -2.813,2.075 -1.158,0.87 -2.302,1.76 -3.596,2.423 -0.32,0.163 -0.598,-0.329 -0.313,-0.538 1.14,-0.842 2.362,-1.574 3.514,-2.395 0.52,-0.372 1.034,-0.818 1.556,-1.249 -4.577,1.052 -11.139,3.797 -9.365,6.729 1.784,2.946 6.174,-1.125 7.64,-2.478 1.186,-1.095 2.201,-2.321 3.168,-3.612 0.241,-0.321 0.467,-0.679 0.703,-1.029 -0.152,0.02 -0.326,0.049 -0.494,0.074 m -12.472,21.924 c 1.803,5.157 8.152,-3.991 10.159,-7.734 -0.691,0.968 -1.698,1.707 -2.597,2.47 -1.124,0.949 -2.126,1.971 -3.163,3.005 -0.264,0.266 -0.627,-0.161 -0.44,-0.44 0.658,-0.988 1.682,-1.78 2.579,-2.541 1.131,-0.957 2.204,-2.013 3.369,-2.918 0.188,-0.146 0.39,0.041 0.353,0.234 0.213,-0.406 0.369,-0.743 0.451,-0.969 0.051,-0.148 0.154,-0.235 0.265,-0.283 l 0.07,-0.427 c -3.473,1.966 -12.601,5.163 -11.046,9.603 m 2.212,14.527 c -0.658,1.477 -1.244,2.97 -1.586,4.555 -0.654,3.029 1.896,1.88 2.913,0.594 2.045,-2.595 3.9,-6.859 4.645,-10.575 -1.079,1.577 -2.268,3.087 -2.998,4.89 -0.154,0.375 -0.727,0.135 -0.58,-0.243 0.878,-2.267 2.249,-4.445 3.842,-6.33 0.01,-0.089 0.03,-0.185 0.037,-0.271 -2.909,1.558 -4.933,4.378 -6.273,7.38 m 6.966,17.984 c 0.072,1.605 0.395,3.262 1.252,4.641 0.963,1.546 3.446,1.773 4.067,-0.111 0.863,-2.616 -1.038,-6.335 -2.052,-8.705 -0.502,-1.174 -1.371,-2.428 -2.024,-3.689 -0.139,0.25 -0.257,0.515 -0.37,0.782 0.065,0.438 0.129,0.874 0.2,1.31 0.373,2.236 0.97,4.358 1.651,6.516 0.12,0.381 -0.408,0.619 -0.579,0.245 -0.831,-1.811 -1.464,-3.919 -1.877,-6.05 -0.331,1.673 -0.342,3.453 -0.268,5.061 m 2.054,-21.852 c 0.864,0.463 1.674,1.036 2.514,1.54 1.07,0.644 1.951,1.248 2.672,2.266 0.018,0.027 -0.01,0.068 -0.041,0.051 -1.082,-0.503 -2.072,-1.093 -3.105,-1.7 -0.301,-0.176 -0.607,-0.353 -0.909,-0.532 0.657,0.848 1.365,1.659 2.065,2.431 0.99,1.091 2.152,2.339 3.5,2.984 1.435,0.691 3.628,0.181 3.605,-1.741 -0.025,-2.233 -4.455,-3.621 -6.072,-4.241 -1.314,-0.504 -3.068,-0.774 -4.445,-1.392 0.066,0.114 0.147,0.224 0.216,0.334 m 8.296,-7.38 c 4.922,-3.227 -4.945,-7.802 -7.535,-9.477 0.398,3.122 3.896,11.861 7.535,9.477 m -3.727,-28.919 c 1.244,3.099 2.865,6.07 4.248,9.111 0.204,0.445 -0.493,0.737 -0.696,0.294 -1.236,-2.679 -2.606,-5.224 -3.458,-8.019 0.169,2.012 0.496,4.019 0.99,5.972 0.457,1.807 0.948,3.719 2.017,5.276 1.194,1.742 4.011,1.922 3.815,-0.664 -0.247,-3.176 -2.791,-6.481 -4.495,-9.018 -0.653,-0.972 -1.622,-2.024 -2.433,-3.119 0.001,0.057 0.008,0.111 0.012,0.167 m 6.519,-6.69 c 0.405,1.732 0.957,3.418 1.705,5.028 0.708,1.531 2.889,3.123 2.803,0.347 -0.096,-3.117 -1.342,-6.097 -2.809,-8.981 0.281,1.842 0.513,3.701 1.048,5.465 0.15,0.489 -0.585,0.802 -0.732,0.311 -0.783,-2.616 -1.386,-5.508 -1.646,-8.307 -0.38,-0.71 -0.761,-1.418 -1.121,-2.12 -0.101,0.223 -0.176,0.465 -0.234,0.717 0.016,0.136 -0.005,0.275 -0.067,0.393 -0.331,2.23 0.62,5.296 1.053,7.147 m 6.402,-16.992 c -0.138,1.601 -0.155,3.294 0.396,4.826 0.63,1.745 3.178,2.804 3.578,0.414 0.451,-2.696 -0.965,-5.933 -1.824,-8.431 -0.019,-0.057 -0.048,-0.123 -0.072,-0.181 0.17,0.981 0.321,1.969 0.42,2.962 0.052,0.511 -0.736,0.623 -0.789,0.112 -0.097,-0.987 -0.235,-1.967 -0.398,-2.946 -0.12,-0.722 -0.332,-1.464 -0.414,-2.203 -0.345,1.803 -0.737,3.595 -0.897,5.447 M 7.648,-7.644 c -2.388,1.956 -4.681,4.052 -6.9,6.252 0.047,0.119 0.094,0.231 0.14,0.328 0.619,1.286 1.082,2.663 1.488,4.03 0.36,1.211 1.415,5.001 -0.46,5.653 -3.719,1.289 -3.77,-4.108 -3.211,-7.804 -0.075,0.074 -0.161,0.133 -0.268,0.148 -1.908,1.999 -3.769,4.059 -5.547,6.213 0.169,0.18 0.243,0.449 0.057,0.708 -0.074,0.106 -0.134,0.221 -0.202,0.331 1.845,1.75 2.481,4.933 3.024,7.269 0.443,1.898 1.495,5.591 -0.777,6.782 -2.653,1.391 -4.282,-3.23 -4.626,-4.846 -0.488,-2.287 -0.398,-5.203 0.425,-7.662 -0.612,0.784 -1.207,1.58 -1.799,2.381 0.148,0.369 -0.151,0.869 -0.606,0.816 -2.115,2.901 -4.117,5.905 -6,9.002 0.108,-0.026 0.222,-0.018 0.318,0.059 0.754,0.587 1.035,1.882 1.354,2.743 0.651,1.756 1.217,3.538 1.704,5.346 0.464,1.72 1.737,6.432 -0.425,7.635 -2.748,1.527 -4.32,-1.666 -4.691,-3.83 -0.461,-2.678 -0.011,-5.514 0.469,-8.263 -0.1,0.059 -0.219,0.092 -0.37,0.065 -0.148,-0.026 -0.301,-0.041 -0.45,-0.06 0.01,0.069 -0.002,0.137 -0.062,0.181 -0.065,0.047 -0.138,0.079 -0.202,0.122 -2.008,3.578 -3.872,7.251 -5.56,11.014 2.311,2.294 3.638,6.766 4.69,9.525 0.67,1.755 3.166,7.56 0.519,8.864 -4.226,2.085 -7.054,-9.836 -6.617,-14.992 -0.02,-0.003 -0.037,-0.006 -0.057,-0.008 -1.554,3.729 -2.962,7.525 -4.183,11.371 2.159,1.929 3.901,5.598 5.188,7.772 1.218,2.06 3.928,6.27 1.995,8.638 -2.083,2.545 -4.999,-0.575 -6.031,-2.343 -1.832,-3.14 -1.653,-6.946 -2.229,-10.463 -0.108,0.375 -0.23,0.747 -0.334,1.123 0.715,0.148 0.563,1.291 -0.187,1.173 -0.009,-10e-4 -0.02,-10e-4 -0.03,-0.004 -0.072,0.164 -0.157,0.323 -0.254,0.479 -0.955,3.611 -1.767,7.251 -2.413,10.902 0.138,0.225 0.144,0.506 -0.117,0.701 -0.046,0.272 -0.091,0.543 -0.137,0.815 0.234,0.124 0.392,0.371 0.245,0.663 -0.13,0.254 -0.304,0.59 -0.515,0.992 -0.022,0.152 -0.039,0.303 -0.062,0.454 0.223,-0.104 0.488,-0.081 0.651,0.077 0.023,-0.005 0.036,-0.018 0.059,-0.017 2.768,0.198 6.024,2.864 7.951,4.672 1.834,1.719 2.697,4.666 0.423,6.47 -4.337,3.438 -8.495,-5.518 -9.307,-9.605 -0.485,3.595 -0.825,7.188 -0.989,10.763 0.443,0.143 0.66,0.936 0.075,1.137 -0.046,0.015 -0.086,0.04 -0.13,0.058 -0.024,0.691 -0.026,1.382 -0.04,2.071 0.193,0.006 0.378,0.094 0.471,0.32 0.008,0.022 0.023,0.041 0.033,0.063 0.042,-0.008 0.076,-0.035 0.116,-0.033 1.098,0.007 2.327,0.603 3.358,0.939 1.734,0.566 3.438,1.245 5.06,2.08 1.884,0.971 4.591,2.787 3.421,5.237 -2.949,6.192 -10.171,-3.197 -12.49,-6.936 -0.017,4.037 0.175,8.043 0.605,11.985 2.2,1.466 3.478,6.364 4.249,8.579 0.66,1.892 2.355,7.163 -0.454,8.289 -6.572,2.636 -6.741,-9.341 -5.121,-13.972 -0.107,-0.947 -0.169,-1.876 -0.176,-2.767 -0.003,-0.254 0.347,-0.413 0.476,-0.178 -0.286,-4.808 -0.336,-9.622 -0.136,-14.42 -0.721,2.749 -1.509,5.431 -2.568,8.094 -0.867,2.186 -2.354,6.215 -5.232,6.334 -3.106,0.127 -1.329,-4.844 -0.844,-6.187 1.703,-4.715 4.441,-8.082 8.763,-10.551 0.225,-3.918 0.622,-7.825 1.167,-11.705 -2.361,4.278 -7.12,11.706 -10.582,8.191 -2.397,-2.431 -1.017,-5.187 1.213,-7.103 1.482,-1.277 3.304,-2.207 5.028,-3.106 1.362,-0.711 3.534,-1.332 4.555,-2.513 0.162,-0.19 0.352,-0.238 0.525,-0.211 0.555,-3.173 1.24,-6.317 2.01,-9.439 -0.139,0.164 -0.274,0.325 -0.397,0.48 -1.406,1.732 -2.981,3.349 -4.634,4.844 -2.087,1.882 -6,3.783 -7.876,0.635 -2.842,-4.767 9.617,-8.82 13.638,-8.796 0.21,-0.786 0.451,-1.565 0.673,-2.346 -0.039,-0.166 -0.064,-0.337 -0.109,-0.499 -0.092,-0.347 0.15,-0.566 0.435,-0.637 0.019,-0.053 0.032,-0.109 0.049,-0.162 -0.274,-0.469 -0.495,-0.946 -0.623,-1.426 -0.07,-0.261 0.277,-0.529 0.514,-0.395 0.186,0.103 0.368,0.223 0.547,0.356 1.08,-3.473 2.311,-6.896 3.662,-10.27 -0.52,0.419 -1.073,0.802 -1.545,1.181 -1.952,1.575 -3.89,3.154 -5.944,4.589 -1.934,1.352 -6.202,4.713 -8.292,2.034 -2.293,-2.936 2.046,-6.119 4.197,-7.171 2.92,-1.422 6.997,-2.624 10.606,-2.638 0.167,-0.049 0.331,-0.117 0.5,-0.158 0.146,-0.033 0.253,0.068 0.294,0.192 0.257,0.014 0.521,0.014 0.771,0.038 0.075,-0.031 0.15,-0.064 0.226,-0.089 0.237,-0.57 0.49,-1.129 0.735,-1.692 -0.085,-0.189 -0.176,-0.379 -0.258,-0.565 -0.139,-0.318 0.247,-0.593 0.513,-0.4 0.043,0.032 0.082,0.069 0.121,0.102 1.333,-3.001 2.78,-5.951 4.33,-8.846 -2.075,1.503 -5.299,2.509 -7.248,3.475 -1.664,0.823 -6.482,3.221 -8.191,1.304 -2.148,-2.415 1.545,-5.395 3.453,-6.272 4.268,-1.968 9.113,-1.471 13.68,-1.571 2.243,-3.93 4.716,-7.732 7.375,-11.413 -0.019,0.006 -0.04,0.01 -0.06,0.015 -0.662,0.508 -1.642,0.812 -2.312,1.119 -1.765,0.812 -3.592,1.508 -5.43,2.138 -1.976,0.674 -5.07,1.748 -6.3,-0.586 -1.451,-2.751 2.256,-4.51 4.24,-4.951 3.307,-0.738 7.649,-0.354 10.882,0.84 2.863,-3.85 5.958,-7.547 9.274,-11.067 -0.246,-0.11 -0.509,-0.21 -0.783,-0.296 10e-4,0.074 -0.018,0.149 -0.072,0.213 -2.701,3.167 -8.083,4.881 -12.08,3.689 -0.337,-0.101 -0.368,-0.534 -0.207,-0.783 2.767,-4.276 9.383,-5.673 13.987,-3.706 0.192,-0.2 0.401,-0.39 0.594,-0.589 0.082,-0.348 0.162,-0.646 0.24,-0.891 -0.08,-0.298 -0.113,-0.577 -0.062,-0.808 0.057,-0.256 0.275,-0.38 0.525,-0.304 0.289,0.092 0.5,0.345 0.667,0.643 2.144,-2.135 4.346,-4.224 6.675,-6.208 0.47,-0.401 1.065,0.365 0.586,0.757"
        transform="matrix(0.34509205,-1.2879011,-1.2879011,-0.34509205,-8007.4164,7312.0486)"
        style="fill:#381c10;fill-rule:nonzero;stroke:none"
 />
    </g>
  </g>

</svg>